<svg xmlns="http://www.w3.org/2000/svg" xmlns:xlink="http://www.w3.org/1999/xlink" width="200" zoomAndPan="magnify" viewBox="0 0 150 149.999998" height="200" preserveAspectRatio="xMidYMid meet" version="1.0"><path fill="#a88066" d="M 126.894531 100.292969 L 67.136719 100.292969 C 61.289062 100.292969 56.53125 95.273438 56.53125 89.105469 C 56.53125 82.9375 61.292969 77.917969 67.136719 77.917969 L 126.894531 77.917969 C 132.742188 77.917969 137.5 82.9375 137.5 89.105469 C 137.5 95.273438 132.738281 100.292969 126.894531 100.292969 Z M 67.136719 84.167969 C 64.730469 84.167969 62.78125 86.382812 62.78125 89.105469 C 62.78125 91.832031 64.730469 94.042969 67.136719 94.042969 L 126.894531 94.042969 C 129.300781 94.042969 131.25 91.832031 131.25 89.105469 C 131.25 86.382812 129.300781 84.167969 126.894531 84.167969 Z M 67.136719 84.167969 " fill-opacity="1" fill-rule="nonzero"/><path fill="#a88066" d="M 72.613281 150 C 62.585938 150 54.007812 146.667969 47.800781 140.367188 L 22.1875 114.238281 C 15.945312 107.886719 12.5 98.867188 12.5 88.84375 C 12.5 78.980469 15.945312 70.042969 22.199219 63.6875 L 81.695312 3.179688 C 85.820312 -1.007812 93.125 -0.894531 97.355469 3.40625 C 101.695312 7.820312 101.792969 14.898438 97.570312 19.179688 L 86.554688 30.53125 C 90.667969 32.210938 94.292969 34.625 97.425781 37.773438 L 112.820312 53.585938 C 117.019531 57.863281 116.914062 64.929688 112.574219 69.34375 C 111.523438 70.429688 110.300781 71.269531 108.90625 71.859375 C 107.515625 72.453125 106.0625 72.75 104.550781 72.75 C 101.648438 72.75 98.949219 71.617188 96.929688 69.570312 L 81.082031 53.992188 C 79.074219 51.949219 76.210938 50.929688 72.539062 50.929688 C 68.75 50.929688 65.855469 51.914062 63.945312 53.863281 L 38.523438 80.074219 C 36.386719 82.257812 35.269531 85.269531 35.269531 88.824219 C 35.269531 92.429688 36.449219 95.707031 38.511719 97.800781 L 64.03125 123.9375 C 66 125.945312 68.867188 126.960938 72.542969 126.960938 C 76.21875 126.960938 79.074219 125.945312 81.042969 123.9375 L 96.976562 108.28125 C 97.972656 107.269531 99.125 106.492188 100.4375 105.945312 C 101.746094 105.402344 103.113281 105.132812 104.53125 105.136719 L 104.542969 105.136719 C 107.5625 105.136719 110.414062 106.351562 112.582031 108.550781 C 116.914062 112.957031 117.019531 120.03125 112.804688 124.3125 L 97.449219 140.09375 C 91.164062 146.488281 82.351562 150 72.613281 150 Z M 89.3125 6.25 C 88.71875 6.246094 88.144531 6.355469 87.59375 6.585938 C 87.042969 6.8125 86.5625 7.136719 86.144531 7.5625 L 26.648438 68.070312 C 21.554688 73.25 18.75 80.625 18.75 88.84375 C 18.75 97.226562 21.554688 104.6875 26.65625 109.863281 L 26.664062 109.867188 L 52.269531 135.992188 C 57.261719 141.0625 64.300781 143.75 72.613281 143.75 C 80.664062 143.75 87.886719 140.90625 92.976562 135.738281 L 108.332031 119.957031 C 110.175781 118.074219 110.074219 114.929688 108.117188 112.945312 C 107.652344 112.453125 107.105469 112.078125 106.484375 111.808594 C 105.863281 111.539062 105.214844 111.40625 104.539062 111.398438 L 104.53125 111.398438 C 103.304688 111.398438 102.257812 111.832031 101.394531 112.707031 L 85.460938 128.363281 C 82.355469 131.53125 77.875 133.226562 72.539062 133.226562 C 67.199219 133.226562 62.710938 131.53125 59.5625 128.324219 L 34.039062 102.1875 C 30.792969 98.894531 29.007812 94.148438 29.007812 88.835938 C 29.007812 83.6875 30.792969 79.023438 34.042969 75.71875 L 59.460938 49.507812 C 62.605469 46.304688 67 44.6875 72.53125 44.6875 C 77.867188 44.6875 82.351562 46.382812 85.492188 49.582031 L 101.34375 65.15625 C 101.761719 65.589844 102.25 65.925781 102.804688 66.160156 C 103.359375 66.394531 103.941406 66.511719 104.542969 66.507812 C 105.21875 66.5 105.863281 66.367188 106.484375 66.097656 C 107.101562 65.832031 107.644531 65.457031 108.113281 64.96875 C 110.070312 62.976562 110.175781 59.832031 108.34375 57.960938 L 92.960938 42.164062 C 91.222656 40.410156 89.277344 38.929688 87.121094 37.722656 C 84.96875 36.515625 82.691406 35.625 80.289062 35.054688 C 79.195312 34.800781 78.21875 33.957031 77.898438 32.875 C 77.582031 31.792969 77.769531 30.605469 78.550781 29.800781 L 93.082031 14.8125 C 94.945312 12.925781 94.84375 9.78125 92.886719 7.789062 C 92.421875 7.300781 91.875 6.921875 91.257812 6.65625 C 90.636719 6.390625 89.988281 6.253906 89.3125 6.25 Z M 89.3125 6.25 " fill-opacity="1" fill-rule="nonzero"/></svg>